<?xml version="1.0" standalone="no"?>
<!DOCTYPE svg PUBLIC "-//W3C//DTD SVG 20010904//EN"
 "http://www.w3.org/TR/2001/REC-SVG-20010904/DTD/svg10.dtd">
<svg version="1.0" xmlns="http://www.w3.org/2000/svg"
 width="300.000000pt" height="300.000000pt" viewBox="0 0 300.000000 300.000000"
 preserveAspectRatio="xMidYMid meet">
<metadata>
Created by potrace 1.10, written by Peter Selinger 2001-2011
</metadata>
<g transform="translate(0.000000,300.000000) scale(0.100000,-0.100000)"
fill="#000000" stroke="none">
<path d="M1824 2789 c-4 -6 -8 -62 -10 -123 -2 -61 -6 -132 -9 -157 -4 -34 -1
-50 10 -59 22 -18 19 -73 -5 -95 -18 -16 -27 -17 -88 -7 -65 11 -351 18 -382
9 -8 -2 -64 -16 -125 -31 -208 -51 -402 -162 -560 -321 -230 -229 -345 -510
-345 -840 0 -247 64 -460 198 -660 93 -140 235 -276 380 -363 111 -67 362
-158 362 -130 0 9 -76 46 -108 53 -55 11 -237 103 -319 162 -145 103 -283 267
-364 433 -32 65 -75 181 -83 223 -1 6 -9 39 -16 72 -21 90 -18 361 4 450 62
246 157 417 320 580 95 95 180 157 293 214 74 38 243 105 243 96 0 -1 33 5 73
16 91 23 309 26 411 5 58 -13 73 -13 95 -1 51 26 64 49 57 102 -7 54 -9 88 -7
118 1 11 2 60 1 109 0 62 4 92 12 98 7 4 38 5 68 2 30 -4 74 -6 97 -5 23 1 44
-3 48 -9 3 -5 15 -10 25 -10 10 0 28 -12 40 -27 12 -15 42 -43 68 -61 26 -18
46 -38 44 -44 -4 -14 -28 -45 -90 -117 -46 -53 -58 -65 -115 -112 -20 -17 -30
-37 -34 -67 -5 -40 -3 -44 39 -84 25 -24 72 -61 104 -83 181 -122 355 -346
422 -540 60 -173 67 -223 66 -430 0 -120 -5 -168 -23 -240 -12 -49 -26 -99
-31 -110 -4 -11 -14 -36 -20 -55 -45 -126 -149 -285 -257 -394 -134 -136 -259
-214 -467 -292 -115 -43 -145 -68 -60 -49 241 53 505 230 663 444 174 235 256
531 230 825 -14 163 -60 321 -132 456 -85 157 -243 330 -394 430 -95 62 -124
103 -105 145 8 16 23 28 43 32 20 4 35 15 42 32 7 14 28 42 47 63 19 20 59 63
88 97 l52 60 -22 16 c-13 9 -48 33 -78 53 -30 21 -55 45 -55 54 0 23 -8 29
-45 33 -18 3 -41 12 -52 22 -16 14 -23 15 -39 5 -15 -10 -39 -10 -100 -2 -44
5 -84 12 -89 15 -5 3 -12 0 -16 -6z"/>
<path d="M1928 2673 c-71 -55 -78 -162 -14 -220 20 -19 48 -34 63 -35 16 0 35
-2 43 -3 30 -3 70 18 100 51 26 30 30 43 30 91 0 52 -3 58 -44 99 -40 40 -48
44 -93 44 -39 0 -58 -6 -85 -27z m174 -35 c28 -31 32 -46 28 -103 -3 -51 -65
-105 -120 -105 -34 0 -99 42 -114 75 -29 60 3 138 66 165 43 18 108 3 140 -32z"/>
<path d="M1375 2149 c-38 -5 -113 -23 -165 -39 -104 -33 -264 -116 -240 -123
8 -3 42 -14 75 -25 33 -12 89 -25 124 -31 47 -8 72 -18 93 -38 25 -24 34 -26
105 -26 179 1 224 7 244 32 15 18 16 27 8 43 -8 16 -4 39 21 109 18 49 31 92
28 94 -10 10 -228 13 -293 4z m264 -18 c12 -8 10 -19 -9 -70 -12 -34 -27 -64
-33 -68 -6 -3 -33 -5 -60 -4 -69 3 -194 -17 -246 -40 -42 -18 -48 -18 -128 -3
-91 17 -153 39 -153 54 0 23 184 100 300 126 64 14 309 18 329 5z m-42 -197
c10 -26 -11 -37 -49 -25 -25 8 -44 7 -79 -3 -39 -12 -71 -13 -194 -6 -37 2 11
21 89 35 106 20 225 19 233 -1z"/>
<path d="M2000 2008 c0 -31 -60 -171 -79 -185 -29 -20 -26 -35 9 -62 17 -12
42 -39 56 -61 31 -47 110 -110 138 -110 15 0 7 12 -38 52 -32 28 -68 68 -81
88 -13 20 -37 43 -54 50 -17 7 -31 16 -31 21 0 48 100 -34 213 -174 21 -26 44
-47 51 -47 7 0 40 -14 72 -30 51 -26 172 -80 180 -80 5 0 -27 74 -67 156 -51
103 -150 229 -238 300 -93 76 -131 100 -131 82z m97 -69 c106 -82 220 -226
278 -351 44 -95 31 -99 -103 -32 -78 39 -95 53 -107 81 -14 34 -168 193 -186
193 -14 0 -11 38 9 97 21 66 36 68 109 12z"/>
<path d="M930 1940 c-24 -24 -25 -43 -4 -64 32 -32 84 -14 84 30 0 41 -51 63
-80 34z m64 -23 c9 -14 7 -21 -7 -32 -18 -13 -53 -10 -63 6 -3 5 0 18 6 29 14
25 48 23 64 -3z"/>
<path d="M782 1837 c-83 -97 -138 -186 -181 -293 -142 -353 -65 -761 193
-1033 55 -58 208 -181 224 -181 4 0 18 35 32 78 17 52 35 87 56 107 19 18 42
58 57 100 114 312 135 374 142 405 4 19 15 60 25 90 16 48 53 196 66 269 3 13
12 51 20 85 8 34 17 90 20 126 9 91 2 97 -190 166 -125 44 -166 55 -195 50
-49 -8 -208 48 -213 75 -2 13 -16 3 -56 -44z m198 -46 c0 -4 -23 -31 -50 -61
-103 -111 -177 -252 -206 -392 -23 -106 -14 -319 16 -408 57 -167 167 -327
279 -405 23 -15 41 -34 41 -41 0 -7 -9 -38 -21 -69 -18 -49 -23 -55 -42 -49
-60 18 -207 156 -284 265 -73 104 -104 173 -146 319 -29 102 -30 349 -2 455
38 147 124 310 215 409 l41 44 79 -30 c44 -17 80 -34 80 -37z m261 -70 l175
-63 -18 -101 c-9 -56 -22 -118 -27 -137 -9 -33 -18 -71 -41 -177 -30 -135
-225 -722 -240 -723 -4 0 -33 21 -65 48 -116 93 -212 242 -257 398 -18 65 -22
103 -22 209 1 114 4 141 28 215 32 98 82 196 134 259 51 63 135 142 147 137 6
-2 89 -31 186 -65z"/>
<path d="M1626 1749 c-20 -15 -26 -29 -26 -58 0 -47 21 -76 64 -91 85 -28 152
72 95 144 -27 34 -93 37 -133 5z m111 -11 c52 -48 8 -138 -61 -124 -59 12 -77
88 -30 125 34 27 62 27 91 -1z"/>
<path d="M1889 1515 c-35 -19 -45 -35 -160 -262 -99 -194 -150 -316 -254 -603
-70 -192 -79 -228 -64 -246 9 -11 4 -33 -21 -100 -17 -47 -29 -88 -25 -92 4
-4 64 -7 133 -7 275 1 502 95 692 285 189 188 289 434 290 712 l0 76 -92 33
c-64 23 -102 43 -123 65 -16 17 -50 38 -75 47 -68 23 -200 73 -240 90 -30 13
-39 13 -61 2z m234 -105 l128 -45 10 -39 c15 -57 13 -251 -4 -321 -43 -176
-135 -325 -265 -429 -148 -118 -308 -175 -491 -176 -75 0 -82 2 -76 17 5 10
46 122 92 248 46 127 92 248 102 270 10 22 24 58 31 80 7 22 18 47 25 55 7 8
16 26 20 40 4 14 13 32 20 40 8 8 17 27 20 43 4 15 11 29 15 32 5 3 28 45 51
93 23 48 46 89 49 92 4 3 10 14 14 26 3 11 15 30 26 42 l20 21 43 -22 c23 -13
100 -43 170 -67z m272 -114 l60 -22 3 -118 c3 -129 -13 -216 -62 -336 -117
-292 -391 -521 -698 -584 -98 -20 -304 -22 -311 -3 -3 8 5 38 17 68 21 53 22
54 66 56 170 9 313 45 419 104 271 153 424 418 421 729 -1 63 -1 118 -1 123 1
11 21 7 86 -17z"/>
<path d="M2382 1418 c-32 -41 20 -102 63 -74 21 14 36 64 16 51 -6 -3 -9 -10
-6 -15 8 -13 -22 -32 -47 -28 -22 3 -24 11 -19 59 1 6 15 9 36 6 19 -3 33 -2
31 2 -8 12 -63 11 -74 -1z"/>
</g>
</svg>
