<svg id="svg" version="1.1" xmlns="http://www.w3.org/2000/svg" xmlns:xlink="http://www.w3.org/1999/xlink" width="400" height="400" viewBox="0, 0, 400,400"><g id="svgg"><path id="path0" d="M0.000 200.000 L 0.000 400.000 200.000 400.000 L 400.000 400.000 400.000 200.000 L 400.000 0.000 200.000 0.000 L 0.000 0.000 0.000 200.000 M216.200 101.370 C 270.329 109.849,306.807 160.882,297.851 215.600 C 285.615 290.362,198.679 324.719,138.800 278.456 C 91.887 242.211,87.568 172.177,129.641 129.956 C 152.383 107.134,184.753 96.444,216.200 101.370 " stroke="none" fill="#fcfcfc" fill-rule="evenodd"></path><path id="path1" d="M189.800 100.814 C 148.987 104.893,113.587 135.637,103.628 175.654 C 90.358 228.972,122.569 283.260,175.254 296.372 C 232.191 310.543,288.369 273.530,297.851 215.600 C 308.536 150.317,255.734 94.224,189.800 100.814 M207.600 117.622 C 264.004 122.768,298.092 181.643,274.568 233.284 C 251.157 284.678,183.197 296.727,142.971 256.615 C 93.270 207.057,124.349 124.252,195.200 117.462 C 198.329 117.162,203.255 117.226,207.600 117.622 M191.400 134.589 C 147.968 141.515,123.168 190.191,142.994 229.600 C 165.687 274.709,228.912 277.278,256.202 234.200 C 259.128 229.582,262.847 221.318,263.435 218.128 C 263.590 217.288,263.967 215.884,264.273 215.009 C 266.515 208.594,266.349 190.152,263.983 182.745 C 263.552 181.398,263.200 180.108,263.200 179.879 C 263.200 178.625,259.584 170.351,257.509 166.859 C 256.679 165.462,256.000 164.247,256.000 164.160 C 256.000 162.859,242.743 148.000,241.582 148.000 C 241.412 148.000,240.312 147.228,239.137 146.285 C 235.843 143.640,228.659 139.607,224.724 138.193 C 218.444 135.936,215.764 135.235,210.995 134.600 C 205.690 133.894,195.793 133.889,191.400 134.589 M212.400 135.399 C 221.387 136.986,232.737 141.947,239.137 147.085 C 240.312 148.028,241.408 148.800,241.573 148.800 C 241.737 148.800,243.588 150.491,245.685 152.558 C 266.105 172.682,271.266 202.923,258.626 228.400 C 236.730 272.533,174.611 277.018,147.809 236.400 C 116.435 188.853,156.889 125.595,212.400 135.399 " stroke="none" fill="#4a295a" fill-rule="evenodd"></path><path id="path2" d="M194.800 134.818 C 146.500 139.997,120.823 195.503,147.809 236.400 C 172.855 274.356,230.099 273.498,255.013 234.792 C 267.074 216.055,268.798 193.278,259.714 172.683 C 256.110 164.510,244.176 148.800,241.573 148.800 C 241.408 148.800,240.312 148.028,239.137 147.085 C 227.944 138.098,210.142 133.173,194.800 134.818 " stroke="none" fill="#04fbcb" fill-rule="evenodd"></path><path id="path3" d="M195.200 117.462 C 160.963 120.743,134.287 141.118,123.482 172.240 C 102.444 232.834,157.174 293.419,219.400 278.418 C 269.460 266.350,295.960 212.059,274.743 165.035 C 261.061 134.711,227.108 114.404,195.200 117.462 M210.995 134.600 C 215.764 135.235,218.444 135.936,224.724 138.193 C 228.659 139.607,235.843 143.640,239.137 146.285 C 240.312 147.228,241.412 148.000,241.582 148.000 C 242.743 148.000,256.000 162.859,256.000 164.160 C 256.000 164.247,256.679 165.462,257.509 166.859 C 259.584 170.351,263.200 178.625,263.200 179.879 C 263.200 180.108,263.552 181.398,263.983 182.745 C 266.349 190.152,266.515 208.594,264.273 215.009 C 263.967 215.884,263.590 217.288,263.435 218.128 C 262.847 221.318,259.128 229.582,256.202 234.200 C 230.743 274.389,172.863 275.555,147.012 236.400 C 115.792 189.114,154.758 127.117,210.995 134.600 " stroke="none" fill="#331940" fill-rule="evenodd"></path></g></svg>