<svg id="svg" version="1.1" xmlns="http://www.w3.org/2000/svg" xmlns:xlink="http://www.w3.org/1999/xlink" width="400" height="400" viewBox="0, 0, 400,400"><g id="svgg"><path id="path0" d="M0.000 200.000 L 0.000 400.000 200.000 400.000 L 400.000 400.000 400.000 200.000 L 400.000 0.000 200.000 0.000 L 0.000 0.000 0.000 200.000 M199.593 78.512 C 199.707 78.539,200.484 78.426,201.319 78.259 C 202.677 77.989,202.955 78.081,203.933 79.129 C 204.694 79.943,205.573 80.381,206.814 80.565 C 212.294 81.377,212.857 81.842,211.628 84.539 C 211.173 85.538,210.800 86.625,210.800 86.954 C 210.800 87.284,210.640 87.652,210.444 87.773 C 210.249 87.894,209.967 88.477,209.818 89.069 C 209.670 89.662,209.200 90.867,208.774 91.748 C 208.348 92.629,208.000 93.849,208.000 94.459 C 208.000 95.069,207.717 95.801,207.371 96.084 C 205.552 97.577,205.200 98.090,205.200 99.246 C 205.200 100.159,205.574 100.835,206.600 101.774 L 208.000 103.057 208.000 113.528 L 208.000 124.000 209.442 124.000 C 210.424 124.000,211.351 124.366,212.342 125.145 C 216.516 128.424,222.648 129.771,233.500 129.791 C 238.217 129.800,238.401 129.832,238.400 130.644 C 238.400 131.108,238.860 132.166,239.421 132.993 C 240.152 134.070,240.408 134.911,240.321 135.949 L 240.200 137.400 226.145 137.448 C 210.613 137.502,211.200 137.416,211.200 139.629 C 211.200 140.499,211.026 141.523,210.813 141.905 C 210.396 142.652,209.379 150.393,208.946 156.114 C 208.800 158.046,208.527 159.722,208.340 159.837 C 207.579 160.308,207.933 204.727,208.700 204.944 C 209.085 205.053,210.390 205.267,211.600 205.419 C 212.810 205.572,213.890 205.812,214.000 205.953 C 214.110 206.094,215.955 206.642,218.100 207.171 C 220.245 207.700,222.000 208.259,222.000 208.413 C 222.000 208.566,223.215 209.097,224.700 209.593 C 226.185 210.088,227.670 210.713,228.000 210.981 C 228.330 211.249,229.185 211.700,229.900 211.983 C 230.615 212.266,231.202 212.610,231.205 212.749 C 231.207 212.887,231.972 213.356,232.905 213.790 C 234.556 214.559,234.944 214.837,237.358 216.974 C 237.996 217.539,238.681 218.000,238.882 218.000 C 239.645 218.000,249.788 228.640,251.031 230.745 C 251.439 231.435,251.898 232.000,252.051 232.000 C 252.204 232.000,252.737 232.855,253.237 233.900 C 253.736 234.945,254.261 235.890,254.402 236.000 C 255.096 236.540,258.400 243.658,258.400 244.614 C 258.400 244.936,258.540 245.200,258.711 245.200 C 259.077 245.200,260.258 249.062,260.638 251.500 C 260.783 252.435,261.037 253.200,261.202 253.200 C 263.008 253.200,263.000 280.198,261.193 282.600 C 261.028 282.820,260.511 284.519,260.046 286.376 C 259.581 288.233,259.048 289.853,258.862 289.976 C 258.675 290.099,258.398 290.740,258.244 291.400 C 257.950 292.663,254.826 299.257,254.360 299.600 C 254.210 299.710,253.671 300.610,253.163 301.600 C 252.654 302.590,251.914 303.635,251.519 303.923 C 251.124 304.210,250.800 304.640,250.800 304.877 C 250.800 305.114,250.395 305.726,249.900 306.236 C 249.405 306.746,248.370 307.934,247.600 308.875 C 246.830 309.817,245.284 311.534,244.164 312.691 C 243.044 313.848,242.219 314.886,242.330 314.997 C 242.442 315.109,242.242 315.200,241.885 315.200 C 241.291 315.200,240.473 315.815,238.158 318.004 C 237.695 318.442,237.120 318.800,236.881 318.800 C 236.641 318.800,236.210 319.124,235.923 319.519 C 235.635 319.914,234.590 320.654,233.600 321.163 C 232.610 321.671,231.710 322.213,231.600 322.366 C 231.432 322.600,225.269 325.650,222.600 326.819 C 220.042 327.940,211.921 330.009,208.650 330.374 C 183.409 333.189,162.810 324.313,147.647 304.089 C 147.123 303.390,146.540 302.913,146.352 303.030 C 146.163 303.146,146.110 302.979,146.233 302.658 C 146.511 301.934,144.514 298.682,143.990 299.006 C 143.781 299.136,143.706 298.990,143.824 298.682 C 143.942 298.374,143.400 296.849,142.619 295.293 C 141.839 293.738,141.200 292.342,141.200 292.193 C 141.200 292.043,140.937 291.354,140.615 290.660 C 139.705 288.699,137.959 282.533,137.312 279.000 C 136.156 272.684,136.704 253.600,138.041 253.600 C 138.239 253.600,138.400 253.274,138.400 252.876 C 138.400 251.762,140.060 245.426,140.412 245.200 C 140.583 245.090,141.098 243.932,141.557 242.626 C 142.016 241.321,142.545 240.151,142.732 240.026 C 142.920 239.902,143.396 238.945,143.791 237.900 C 144.186 236.855,144.648 236.000,144.819 236.000 C 144.989 236.000,145.536 235.159,146.033 234.131 C 146.531 233.103,147.182 231.978,147.479 231.631 C 147.777 231.284,148.466 230.479,149.010 229.842 C 149.555 229.204,150.000 228.521,150.000 228.322 C 150.000 227.850,159.850 218.000,160.322 218.000 C 160.521 218.000,161.204 217.555,161.842 217.010 C 162.479 216.466,163.284 215.777,163.631 215.479 C 163.978 215.182,165.103 214.531,166.131 214.033 C 167.159 213.536,168.000 212.989,168.000 212.819 C 168.000 212.648,168.855 212.182,169.900 211.783 C 170.945 211.384,172.007 210.850,172.262 210.596 C 172.516 210.341,173.731 209.817,174.962 209.430 C 176.193 209.042,177.200 208.588,177.200 208.420 C 177.200 208.253,178.955 207.697,181.100 207.186 C 183.245 206.675,185.090 206.130,185.200 205.977 C 185.310 205.823,186.390 205.572,187.600 205.419 C 188.810 205.267,190.134 205.047,190.542 204.931 C 191.942 204.532,191.036 154.184,189.581 151.510 C 189.374 151.130,189.087 149.009,188.942 146.796 C 188.797 144.582,188.525 142.677,188.339 142.562 C 188.153 142.447,187.998 141.778,187.995 141.076 C 187.992 140.374,187.881 139.395,187.748 138.900 L 187.507 138.000 173.153 138.000 L 158.800 138.000 158.800 136.171 C 158.800 135.094,159.042 134.101,159.389 133.753 C 159.714 133.429,160.158 132.497,160.378 131.682 L 160.777 130.200 165.488 130.200 C 175.446 130.200,182.374 128.741,186.168 125.845 C 187.600 124.752,188.444 124.400,189.631 124.400 L 191.200 124.400 191.200 113.443 L 191.200 102.487 192.211 102.233 C 194.520 101.653,194.866 97.760,192.696 96.771 C 191.957 96.434,191.591 95.627,190.841 92.676 C 190.328 90.654,189.773 88.820,189.609 88.600 C 189.213 88.068,187.600 82.647,187.600 81.846 C 187.600 81.499,188.005 81.134,188.500 81.034 C 193.899 79.945,195.920 79.369,196.600 78.726 C 197.149 78.206,197.712 78.046,198.393 78.215 C 198.938 78.351,199.478 78.484,199.593 78.512 M154.676 127.900 C 154.575 128.285,154.493 127.970,154.493 127.200 C 154.493 126.430,154.575 126.115,154.676 126.500 C 154.776 126.885,154.776 127.515,154.676 127.900 M152.287 139.095 C 152.195 139.703,152.117 139.300,152.114 138.200 C 152.111 137.100,152.187 136.603,152.282 137.095 C 152.377 137.586,152.379 138.486,152.287 139.095 M193.200 227.769 C 149.955 237.751,148.746 297.943,191.600 307.408 C 224.223 314.613,250.763 280.137,235.996 249.738 C 228.354 234.005,209.070 224.106,193.200 227.769 " stroke="none" fill="#0ccb9b" fill-rule="evenodd"></path><path id="path1" d="M196.587 79.214 C 196.062 79.795,193.489 80.470,189.700 81.023 C 188.397 81.212,188.000 81.444,188.000 82.015 C 188.000 82.743,190.134 89.812,190.833 91.400 C 191.027 91.840,191.357 92.996,191.566 93.969 C 191.824 95.173,192.323 96.033,193.128 96.662 C 195.256 98.328,195.106 101.005,192.811 102.317 L 191.615 103.000 191.508 113.800 L 191.400 124.600 189.600 124.726 C 188.395 124.810,187.470 125.158,186.800 125.782 C 184.616 127.813,181.010 129.116,176.200 129.610 C 174.440 129.791,171.920 130.149,170.600 130.405 C 169.280 130.661,166.535 130.790,164.500 130.691 C 160.974 130.520,160.800 130.550,160.800 131.334 C 160.800 131.787,160.337 132.826,159.770 133.643 C 159.107 134.601,158.786 135.534,158.870 136.265 L 159.000 137.400 173.185 137.505 C 180.987 137.563,187.522 137.762,187.707 137.947 C 188.070 138.310,188.565 141.251,189.233 147.000 C 189.463 148.980,189.814 150.960,190.014 151.400 C 190.214 151.840,190.464 153.820,190.570 155.800 C 190.676 157.780,190.936 161.470,191.148 164.000 C 191.360 166.530,191.548 176.726,191.566 186.657 C 191.604 206.631,191.802 205.200,189.001 205.200 C 188.267 205.200,187.607 205.337,187.533 205.504 C 187.460 205.672,185.904 206.119,184.075 206.498 C 182.246 206.877,180.176 207.443,179.475 207.756 C 178.774 208.069,177.300 208.647,176.200 209.042 C 175.100 209.436,174.110 209.863,174.000 209.991 C 173.890 210.118,172.990 210.565,172.000 210.985 C 169.920 211.866,165.463 214.458,165.267 214.900 C 165.193 215.065,164.918 215.200,164.655 215.200 C 162.667 215.200,147.200 230.649,147.200 232.635 C 147.200 232.909,147.065 233.193,146.900 233.267 C 146.458 233.463,143.866 237.920,142.985 240.000 C 142.565 240.990,142.118 241.890,141.991 242.000 C 141.863 242.110,141.436 243.100,141.042 244.200 C 140.647 245.300,140.066 246.779,139.750 247.487 C 139.434 248.194,138.880 250.264,138.519 252.087 C 138.159 253.909,137.727 255.493,137.560 255.606 C 136.343 256.433,136.336 276.866,137.552 280.078 C 137.744 280.585,138.305 282.620,138.798 284.600 C 139.291 286.580,140.033 288.868,140.447 289.684 C 140.861 290.500,141.202 291.400,141.203 291.684 C 141.207 292.276,143.880 297.713,145.505 300.435 C 155.017 316.372,172.369 327.806,190.929 330.368 C 196.881 331.190,210.185 330.728,212.600 329.616 C 213.040 329.413,214.740 328.957,216.378 328.601 C 220.485 327.710,226.042 325.333,232.530 321.693 C 235.103 320.249,240.506 316.019,243.690 312.955 C 246.450 310.300,252.800 302.582,252.800 301.883 C 252.800 301.696,253.309 300.792,253.932 299.872 C 255.299 297.851,257.745 292.803,258.423 290.600 C 258.694 289.720,259.047 288.910,259.207 288.800 C 259.554 288.562,261.200 282.005,261.200 280.862 C 261.200 280.425,261.366 280.007,261.570 279.933 C 263.015 279.413,263.075 256.156,261.634 255.209 C 261.460 255.094,261.092 253.740,260.818 252.200 C 260.543 250.660,259.995 248.680,259.600 247.800 C 259.204 246.920,258.578 245.255,258.208 244.100 C 257.838 242.945,257.409 242.000,257.255 242.000 C 257.101 242.000,256.735 241.188,256.442 240.197 C 256.149 239.205,255.576 237.969,255.169 237.452 C 254.762 236.934,254.017 235.705,253.514 234.720 C 251.735 231.236,240.966 218.800,239.728 218.800 C 239.613 218.800,238.177 217.720,236.536 216.400 C 234.895 215.080,233.364 214.000,233.134 214.000 C 232.904 214.000,231.916 213.460,230.938 212.800 C 229.960 212.140,228.910 211.600,228.604 211.600 C 228.298 211.600,227.945 211.434,227.819 211.231 C 227.694 211.028,227.053 210.743,226.395 210.599 C 225.738 210.455,225.200 210.191,225.200 210.014 C 225.200 209.837,224.255 209.391,223.100 209.024 C 221.945 208.656,220.397 208.078,219.660 207.740 C 218.923 207.401,216.853 206.826,215.060 206.462 C 213.267 206.098,211.740 205.665,211.667 205.500 C 211.593 205.335,210.873 205.197,210.067 205.194 C 207.319 205.182,207.480 206.771,207.744 182.347 C 207.921 165.967,208.143 158.950,208.599 155.400 C 208.937 152.760,209.394 148.716,209.614 146.413 C 209.834 144.110,210.191 142.049,210.407 141.833 C 210.623 141.617,210.803 140.891,210.806 140.220 C 210.809 139.549,211.034 138.568,211.306 138.039 L 211.800 137.079 225.900 137.166 L 240.000 137.253 240.000 135.844 C 240.000 135.001,239.598 133.844,239.000 132.962 C 238.450 132.151,238.000 131.198,238.000 130.844 C 238.001 130.292,237.331 130.192,233.300 130.142 C 222.308 130.008,216.912 128.838,212.503 125.633 C 211.279 124.743,210.361 124.400,209.203 124.400 L 207.600 124.400 207.600 113.728 L 207.600 103.057 206.200 101.774 C 205.154 100.816,204.800 100.166,204.800 99.200 C 204.800 98.234,205.154 97.584,206.200 96.626 C 207.048 95.848,207.605 94.960,207.613 94.372 C 207.619 93.837,208.068 92.500,208.609 91.400 C 209.150 90.300,209.594 89.173,209.596 88.895 C 209.598 88.617,209.765 88.077,209.966 87.695 C 210.561 86.564,212.000 82.882,212.000 82.489 C 212.000 82.084,210.139 81.492,206.708 80.805 C 205.225 80.509,204.166 80.037,203.708 79.470 C 202.807 78.354,197.537 78.165,196.587 79.214 M202.864 84.046 C 205.530 85.944,206.084 90.166,203.980 92.562 C 201.697 95.161,198.373 95.405,195.816 93.160 C 190.334 88.347,196.928 79.819,202.864 84.046 M201.315 129.605 C 203.411 131.253,202.916 134.558,200.419 135.592 C 196.682 137.140,193.984 131.340,197.542 129.407 C 199.015 128.607,200.120 128.665,201.315 129.605 M237.815 133.225 C 238.258 133.942,237.638 135.534,236.814 135.795 C 234.545 136.516,233.349 133.087,235.600 132.314 C 236.256 132.089,237.405 132.561,237.815 133.225 M165.272 133.398 C 165.649 134.226,165.600 134.537,164.986 135.216 C 163.499 136.859,160.966 135.083,162.228 133.281 C 163.084 132.060,164.690 132.121,165.272 133.398 M208.682 215.630 C 212.096 216.233,217.641 217.899,219.963 219.019 C 221.081 219.559,222.171 220.000,222.386 220.000 C 222.600 220.000,223.366 220.338,224.088 220.752 C 224.810 221.165,226.153 221.938,227.074 222.469 C 227.995 223.000,229.615 224.181,230.674 225.094 C 231.733 226.006,233.541 227.541,234.691 228.504 C 236.630 230.127,238.220 231.839,242.132 236.512 C 243.675 238.357,247.181 243.913,247.193 244.535 C 247.197 244.720,247.805 246.250,248.544 247.935 C 252.672 257.346,253.479 269.852,250.656 280.656 C 249.722 284.229,246.302 292.817,245.455 293.715 C 245.204 293.982,244.639 294.893,244.199 295.740 C 243.760 296.587,243.130 297.487,242.800 297.741 C 241.813 298.501,238.000 303.105,238.000 303.538 C 238.000 303.759,237.458 304.358,236.795 304.870 C 233.293 307.575,230.548 309.860,230.134 310.414 C 229.878 310.757,228.935 311.390,228.039 311.819 C 227.142 312.249,226.407 312.708,226.405 312.841 C 226.393 313.463,216.664 317.392,212.486 318.461 C 197.775 322.227,178.149 318.264,168.683 309.616 C 167.977 308.971,166.352 307.547,165.071 306.451 C 163.790 305.355,161.845 303.410,160.749 302.129 C 159.653 300.848,158.214 299.207,157.551 298.483 C 156.077 296.871,152.400 290.884,152.400 290.096 C 152.400 289.781,152.104 288.956,151.743 288.262 C 150.632 286.128,150.549 285.907,149.477 282.200 C 146.080 270.449,146.911 256.506,151.582 246.894 C 152.252 245.515,152.800 244.239,152.800 244.057 C 152.800 243.524,156.729 237.142,157.361 236.650 C 157.679 236.403,159.012 234.874,160.324 233.254 C 161.635 231.634,164.034 229.235,165.654 227.924 C 167.274 226.612,168.803 225.279,169.050 224.961 C 169.542 224.329,175.924 220.400,176.457 220.400 C 176.639 220.400,177.883 219.869,179.223 219.220 C 183.136 217.325,189.726 215.623,195.400 215.044 C 197.794 214.799,206.040 215.163,208.682 215.630 M171.381 239.300 L 169.800 241.000 171.500 239.419 C 173.081 237.948,173.384 237.600,173.081 237.600 C 173.016 237.600,172.251 238.365,171.381 239.300 M240.531 267.800 C 240.533 269.340,240.605 269.921,240.692 269.091 C 240.779 268.261,240.777 267.001,240.689 266.291 C 240.600 265.581,240.529 266.260,240.531 267.800 M230.175 294.900 L 229.000 296.200 230.300 295.025 C 231.015 294.379,231.600 293.794,231.600 293.725 C 231.600 293.416,231.270 293.688,230.175 294.900 M226.575 298.500 L 225.400 299.800 226.700 298.625 C 227.912 297.530,228.184 297.200,227.875 297.200 C 227.806 297.200,227.221 297.785,226.575 298.500 M198.707 308.690 C 199.426 308.779,200.506 308.777,201.107 308.686 C 201.708 308.595,201.120 308.522,199.800 308.524 C 198.480 308.526,197.988 308.601,198.707 308.690 " stroke="none" fill="#4d2c5d" fill-rule="evenodd"></path><path id="path2" d="M196.675 78.696 C 196.293 79.079,194.769 79.693,193.290 80.062 C 191.810 80.430,190.960 80.739,191.400 80.748 C 192.815 80.777,195.917 79.799,196.724 79.069 C 197.258 78.586,197.870 78.433,198.653 78.587 C 199.579 78.769,199.646 78.739,199.000 78.434 C 197.827 77.880,197.449 77.923,196.675 78.696 M200.800 78.431 C 200.015 78.707,200.128 78.737,201.325 78.569 C 202.621 78.387,202.970 78.508,203.654 79.377 C 204.096 79.940,204.607 80.400,204.790 80.400 C 204.972 80.400,204.617 79.860,204.000 79.200 C 202.828 77.945,202.445 77.853,200.800 78.431 M209.579 81.404 C 212.266 82.169,212.189 82.083,211.635 83.670 C 211.384 84.392,211.350 84.806,211.561 84.591 C 213.288 82.826,212.185 81.375,208.800 80.957 C 207.865 80.841,208.124 80.990,209.579 81.404 M187.628 82.033 C 187.644 82.565,187.819 83.360,188.019 83.800 C 188.271 84.358,188.307 84.115,188.138 83.000 C 187.855 81.143,187.587 80.636,187.628 82.033 M195.876 84.500 C 195.154 85.215,195.021 85.419,195.581 84.954 C 196.142 84.488,196.960 83.908,197.400 83.666 C 197.840 83.423,197.972 83.219,197.694 83.212 C 197.416 83.205,196.598 83.785,195.876 84.500 M188.626 85.801 C 189.013 87.396,189.540 88.800,189.751 88.800 C 189.968 88.800,188.876 85.142,188.566 84.833 C 188.439 84.706,188.466 85.141,188.626 85.801 M210.538 86.408 C 210.405 87.073,210.140 87.714,209.948 87.832 C 209.757 87.950,209.601 88.352,209.602 88.724 C 209.604 89.186,209.774 89.076,210.141 88.373 C 210.778 87.152,211.305 85.200,210.998 85.200 C 210.878 85.200,210.671 85.744,210.538 86.408 M193.693 88.800 C 193.693 89.570,193.775 89.885,193.876 89.500 C 193.976 89.115,193.976 88.485,193.876 88.100 C 193.775 87.715,193.693 88.030,193.693 88.800 M204.800 90.586 C 204.800 90.908,204.237 91.853,203.549 92.686 L 202.298 94.200 203.749 92.706 C 204.995 91.423,205.653 90.000,205.000 90.000 C 204.890 90.000,204.800 90.264,204.800 90.586 M209.036 90.342 C 208.594 91.058,207.966 92.982,208.299 92.600 C 208.740 92.094,209.639 90.000,209.415 90.000 C 209.323 90.000,209.152 90.154,209.036 90.342 M190.838 92.634 C 191.439 94.935,191.632 95.212,191.369 93.400 C 191.242 92.520,190.978 91.635,190.783 91.434 C 190.588 91.233,190.612 91.773,190.838 92.634 M207.600 94.272 C 207.600 94.985,207.132 95.771,206.200 96.626 C 204.551 98.136,204.347 99.797,205.632 101.256 L 206.464 102.200 205.832 101.211 C 205.484 100.667,205.200 99.722,205.200 99.111 C 205.200 98.094,205.598 97.540,207.371 96.084 C 207.935 95.622,208.295 93.200,207.800 93.200 C 207.690 93.200,207.600 93.682,207.600 94.272 M198.900 94.676 C 199.285 94.776,199.915 94.776,200.300 94.676 C 200.685 94.575,200.370 94.493,199.600 94.493 C 198.830 94.493,198.515 94.575,198.900 94.676 M191.600 95.756 C 191.600 96.040,192.054 96.478,192.608 96.731 C 194.855 97.755,194.575 101.640,192.211 102.233 L 191.200 102.487 191.200 113.420 L 191.200 124.354 189.500 124.521 L 187.800 124.688 189.600 124.644 L 191.400 124.600 191.508 113.800 L 191.615 103.000 192.811 102.317 C 194.161 101.545,194.944 99.912,194.570 98.647 C 194.267 97.623,191.600 95.027,191.600 95.756 M207.100 102.399 C 207.474 102.818,207.600 105.670,207.600 113.680 L 207.600 124.400 209.227 124.400 C 210.341 124.400,211.317 124.730,212.327 125.450 L 213.800 126.499 212.400 125.260 C 211.374 124.352,210.599 124.019,209.500 124.011 L 208.000 124.000 208.000 113.449 C 208.000 103.869,207.936 102.849,207.300 102.368 C 206.704 101.918,206.675 101.922,207.100 102.399 M185.985 126.020 C 185.223 126.690,184.962 127.067,185.404 126.857 C 186.162 126.496,187.929 124.800,187.547 124.800 C 187.449 124.800,186.747 125.349,185.985 126.020 M181.600 128.200 C 180.830 128.497,180.470 128.745,180.800 128.752 C 181.130 128.758,181.940 128.517,182.600 128.214 C 184.145 127.507,183.426 127.497,181.600 128.200 M217.400 128.157 C 218.060 128.459,219.230 128.811,220.000 128.940 C 221.210 129.142,221.162 129.095,219.644 128.596 C 217.004 127.727,216.055 127.542,217.400 128.157 M199.590 129.209 C 200.355 129.389,201.300 129.930,201.690 130.412 C 202.081 130.894,202.400 131.102,202.400 130.873 C 202.400 130.137,200.324 128.799,199.246 128.841 C 198.349 128.876,198.398 128.929,199.590 129.209 M222.700 129.489 C 223.415 129.578,224.585 129.578,225.300 129.489 C 226.015 129.401,225.430 129.328,224.000 129.328 C 222.570 129.328,221.985 129.401,222.700 129.489 M171.200 130.000 C 169.816 130.291,169.814 130.295,171.000 130.341 C 171.660 130.367,172.470 130.213,172.800 130.000 C 173.466 129.570,173.245 129.570,171.200 130.000 M228.656 130.135 C 228.984 130.319,231.221 130.409,233.627 130.335 C 237.438 130.217,238.001 130.283,238.000 130.844 C 238.000 131.198,238.450 132.151,239.000 132.962 C 239.598 133.844,240.000 135.001,240.000 135.844 L 240.000 137.253 225.977 137.169 C 214.957 137.104,211.852 137.196,211.477 137.602 C 211.102 138.007,211.117 138.051,211.545 137.807 C 211.845 137.637,218.415 137.475,226.145 137.448 L 240.200 137.400 240.321 135.949 C 240.408 134.911,240.152 134.070,239.421 132.993 C 238.860 132.166,238.400 131.108,238.400 130.644 C 238.400 129.829,238.224 129.800,233.230 129.800 C 230.247 129.800,228.312 129.942,228.656 130.135 M161.600 130.429 C 162.567 130.711,170.208 130.877,169.400 130.599 C 169.180 130.523,167.110 130.388,164.800 130.299 C 162.490 130.210,161.050 130.268,161.600 130.429 M160.128 132.300 C 159.714 133.628,159.725 133.711,160.230 133.024 C 160.708 132.373,161.039 130.800,160.698 130.800 C 160.642 130.800,160.385 131.475,160.128 132.300 M234.643 133.033 C 234.294 133.942,234.344 135.118,234.742 135.364 C 234.930 135.481,234.999 135.130,234.895 134.586 C 234.791 134.041,234.929 133.326,235.202 132.998 C 235.489 132.652,235.527 132.400,235.292 132.400 C 235.068 132.400,234.776 132.685,234.643 133.033 M237.057 132.800 C 237.308 133.130,237.602 133.760,237.711 134.200 C 237.897 134.960,237.910 134.957,237.954 134.149 C 237.979 133.681,237.685 133.051,237.300 132.749 C 236.691 132.272,236.660 132.278,237.057 132.800 M162.349 135.300 C 162.651 135.685,163.281 135.979,163.749 135.954 C 164.557 135.910,164.560 135.897,163.800 135.711 C 163.360 135.602,162.730 135.308,162.400 135.057 C 161.878 134.660,161.872 134.691,162.349 135.300 M197.888 135.452 C 198.853 135.963,199.400 136.033,200.072 135.733 C 200.882 135.372,200.835 135.334,199.584 135.345 C 198.823 135.351,197.840 135.225,197.400 135.064 C 196.960 134.903,197.179 135.078,197.888 135.452 M158.800 137.700 C 158.800 137.865,165.259 138.000,173.153 138.000 L 187.507 138.000 187.748 138.900 C 187.881 139.395,187.992 140.374,187.995 141.076 C 187.998 141.778,188.149 142.445,188.330 142.557 C 188.754 142.819,188.166 138.406,187.717 137.957 C 187.299 137.539,158.800 137.285,158.800 137.700 M210.860 140.020 C 210.827 140.801,210.633 141.611,210.429 141.820 C 210.225 142.029,209.965 143.550,209.850 145.200 L 209.641 148.200 210.035 145.400 C 210.252 143.860,210.617 142.224,210.847 141.765 C 211.077 141.306,211.188 140.406,211.093 139.765 C 210.934 138.692,210.915 138.713,210.860 140.020 M189.053 147.600 C 189.168 149.470,189.428 151.171,189.631 151.380 C 189.834 151.589,190.031 152.669,190.070 153.780 L 190.140 155.800 190.295 154.054 C 190.381 153.094,190.311 152.014,190.140 151.654 C 189.969 151.294,189.608 149.470,189.337 147.600 L 188.845 144.200 189.053 147.600 M209.159 150.433 C 208.935 151.341,208.224 159.910,208.385 159.751 C 208.632 159.508,209.526 150.685,209.330 150.433 C 209.258 150.342,209.182 150.342,209.159 150.433 M190.629 159.800 C 190.788 160.240,191.049 170.590,191.210 182.800 L 191.501 205.000 191.435 182.800 C 191.383 165.480,191.255 160.424,190.854 159.800 L 190.340 159.000 190.629 159.800 M207.785 185.800 C 207.785 196.360,207.837 200.623,207.900 195.272 C 207.963 189.922,207.963 181.282,207.900 176.072 C 207.836 170.863,207.785 175.240,207.785 185.800 M185.700 205.876 C 186.085 205.976,186.715 205.976,187.100 205.876 C 187.485 205.775,187.170 205.693,186.400 205.693 C 185.630 205.693,185.315 205.775,185.700 205.876 M212.100 205.876 C 212.485 205.976,213.115 205.976,213.500 205.876 C 213.885 205.775,213.570 205.693,212.800 205.693 C 212.030 205.693,211.715 205.775,212.100 205.876 M226.200 210.451 C 226.860 210.702,227.670 211.098,228.000 211.332 C 228.533 211.709,228.533 211.684,228.000 211.104 C 227.670 210.746,226.860 210.350,226.200 210.224 L 225.000 209.995 226.200 210.451 M199.305 227.087 C 199.914 227.179,200.814 227.177,201.305 227.082 C 201.797 226.987,201.300 226.911,200.200 226.914 C 199.100 226.917,198.697 226.995,199.305 227.087 M227.200 237.725 C 227.200 237.794,227.785 238.379,228.500 239.025 L 229.800 240.200 228.625 238.900 C 227.530 237.688,227.200 237.416,227.200 237.725 M256.213 239.531 C 256.363 239.824,256.631 240.544,256.809 241.131 C 257.067 241.989,257.138 242.037,257.166 241.376 C 257.185 240.924,256.917 240.204,256.570 239.776 C 256.224 239.349,256.063 239.239,256.213 239.531 M238.456 255.600 C 238.456 255.930,238.611 256.560,238.800 257.000 C 239.017 257.504,239.144 257.578,239.144 257.200 C 239.144 256.870,238.989 256.240,238.800 255.800 C 238.583 255.296,238.456 255.222,238.456 255.600 M261.168 281.300 C 261.049 282.160,261.110 282.650,261.312 282.448 C 261.505 282.255,261.598 281.581,261.519 280.949 C 261.387 279.891,261.359 279.919,261.168 281.300 M256.600 294.800 C 256.259 295.460,256.069 296.000,256.179 296.000 C 256.289 296.000,256.659 295.460,257.000 294.800 C 257.341 294.140,257.531 293.600,257.421 293.600 C 257.311 293.600,256.941 294.140,256.600 294.800 M171.400 296.800 C 172.483 297.900,173.460 298.800,173.570 298.800 C 173.680 298.800,172.883 297.900,171.800 296.800 C 170.717 295.700,169.740 294.800,169.630 294.800 C 169.520 294.800,170.317 295.700,171.400 296.800 M195.700 308.287 C 196.305 308.378,197.295 308.378,197.900 308.287 C 198.505 308.195,198.010 308.120,196.800 308.120 C 195.590 308.120,195.095 308.195,195.700 308.287 M201.700 308.287 C 202.305 308.378,203.295 308.378,203.900 308.287 C 204.505 308.195,204.010 308.120,202.800 308.120 C 201.590 308.120,201.095 308.195,201.700 308.287 M156.000 313.800 C 156.746 314.570,157.447 315.200,157.557 315.200 C 157.667 315.200,157.146 314.570,156.400 313.800 C 155.654 313.030,154.953 312.400,154.843 312.400 C 154.733 312.400,155.254 313.030,156.000 313.800 " stroke="none" fill="#2d807e" fill-rule="evenodd"></path><path id="path3" d="M196.687 84.311 C 194.857 85.445,193.788 88.117,194.378 90.084 C 196.231 96.270,204.800 95.102,204.800 88.664 C 204.800 84.671,200.141 82.171,196.687 84.311 M197.289 130.223 C 196.127 131.037,196.079 133.279,197.200 134.400 C 198.921 136.121,202.016 134.914,202.085 132.496 C 202.156 129.985,199.456 128.705,197.289 130.223 M162.600 133.200 C 162.035 134.113,162.776 135.659,163.714 135.526 C 164.982 135.346,165.002 133.057,163.738 132.877 C 163.264 132.810,162.752 132.955,162.600 133.200 M235.055 133.400 C 234.684 134.367,235.214 135.200,236.200 135.200 C 237.267 135.200,237.815 134.141,237.158 133.349 C 236.553 132.620,235.343 132.649,235.055 133.400 " stroke="none" fill="#04fbcb" fill-rule="evenodd"></path><path id="path4" d="M154.493 127.200 C 154.493 127.970,154.575 128.285,154.676 127.900 C 154.776 127.515,154.776 126.885,154.676 126.500 C 154.575 126.115,154.493 126.430,154.493 127.200 M152.114 138.200 C 152.117 139.300,152.195 139.703,152.287 139.095 C 152.379 138.486,152.377 137.586,152.282 137.095 C 152.187 136.603,152.111 137.100,152.114 138.200 " stroke="none" fill="#34d4ac" fill-rule="evenodd"></path><path id="path5" d="M195.400 215.044 C 189.726 215.623,183.136 217.325,179.223 219.220 C 177.883 219.869,176.639 220.400,176.457 220.400 C 175.924 220.400,169.542 224.329,169.050 224.961 C 168.803 225.279,167.274 226.612,165.654 227.924 C 164.034 229.235,161.635 231.634,160.324 233.254 C 159.012 234.874,157.679 236.403,157.361 236.650 C 156.729 237.142,152.800 243.524,152.800 244.057 C 152.800 244.239,152.252 245.515,151.582 246.894 C 146.911 256.506,146.080 270.449,149.477 282.200 C 150.549 285.907,150.632 286.128,151.743 288.262 C 152.104 288.956,152.400 289.781,152.400 290.096 C 152.400 290.884,156.077 296.871,157.551 298.483 C 158.214 299.207,159.653 300.848,160.749 302.129 C 161.845 303.410,163.790 305.355,165.071 306.451 C 166.352 307.547,167.977 308.971,168.683 309.616 C 178.149 318.264,197.775 322.227,212.486 318.461 C 216.664 317.392,226.393 313.463,226.405 312.841 C 226.407 312.708,227.142 312.249,228.039 311.819 C 228.935 311.390,229.878 310.757,230.134 310.414 C 230.548 309.860,233.293 307.575,236.795 304.870 C 237.458 304.358,238.000 303.759,238.000 303.538 C 238.000 303.105,241.813 298.501,242.800 297.741 C 243.130 297.487,243.760 296.587,244.199 295.740 C 244.639 294.893,245.204 293.982,245.455 293.715 C 246.302 292.817,249.722 284.229,250.656 280.656 C 253.479 269.852,252.672 257.346,248.544 247.935 C 247.805 246.250,247.197 244.720,247.193 244.535 C 247.181 243.913,243.675 238.357,242.132 236.512 C 238.220 231.839,236.630 230.127,234.691 228.504 C 233.541 227.541,231.733 226.006,230.674 225.094 C 229.615 224.181,227.995 223.000,227.074 222.469 C 226.153 221.938,224.810 221.165,224.088 220.752 C 223.366 220.338,222.600 220.000,222.386 220.000 C 222.171 220.000,221.081 219.559,219.963 219.019 C 214.047 216.165,202.584 214.310,195.400 215.044 M206.303 227.387 C 233.259 231.451,248.719 261.571,236.394 286.014 C 221.433 315.686,179.046 316.156,164.205 286.814 C 149.238 257.223,173.839 222.494,206.303 227.387 " stroke="none" fill="#331940" fill-rule="evenodd"></path></g></svg>