<svg id="svg" version="1.1" xmlns="http://www.w3.org/2000/svg" xmlns:xlink="http://www.w3.org/1999/xlink" width="256" height="400" viewBox="0, 0, 400,400">
	<g id="svgg">
		<path id="path0" d="M0.000 200.000 L 0.000 400.000 88.500 399.978 L 177.000 399.956 174.000 399.174 C 92.818 378.014,72.593 271.807,140.239 221.887 C 149.162 215.302,165.255 206.800,168.797 206.800 C 169.025 206.800,169.523 206.618,169.905 206.396 C 170.831 205.858,176.420 204.508,181.567 203.579 C 183.858 203.165,185.840 202.686,185.971 202.513 C 186.589 201.698,185.764 131.307,185.129 130.672 C 184.647 130.190,184.439 128.652,184.215 123.924 C 184.029 120.009,183.744 117.584,183.425 117.200 C 183.122 116.836,182.730 113.999,182.432 110.000 C 182.091 105.435,181.763 103.205,181.369 102.769 C 181.056 102.421,180.798 101.431,180.796 100.569 C 180.793 99.706,180.680 98.325,180.543 97.500 L 180.295 96.000 157.980 96.000 C 145.707 96.000,135.381 95.891,135.033 95.757 C 133.764 95.271,134.166 90.172,135.585 88.754 C 136.278 88.061,136.873 86.953,137.020 86.084 C 137.157 85.268,137.342 84.330,137.430 84.000 C 137.567 83.490,138.924 83.398,146.495 83.389 C 154.145 83.379,155.580 83.281,156.680 82.689 C 157.575 82.207,158.899 81.998,161.080 81.994 C 167.293 81.982,174.518 79.562,178.643 76.110 C 180.599 74.473,180.800 74.400,183.343 74.400 L 186.000 74.400 186.000 56.997 L 186.000 39.594 187.592 38.956 C 191.577 37.362,191.837 32.357,188.035 30.418 C 186.497 29.633,186.483 29.606,186.004 26.231 C 185.739 24.362,185.285 22.637,184.996 22.397 C 184.706 22.156,184.348 21.078,184.200 20.000 C 184.052 18.922,183.685 17.836,183.385 17.587 C 183.085 17.338,182.728 16.294,182.591 15.267 C 182.455 14.240,181.973 12.644,181.519 11.721 C 181.005 10.672,180.678 9.169,180.648 7.721 L 180.600 5.400 184.200 4.874 C 186.180 4.585,188.137 4.165,188.549 3.941 C 188.961 3.716,190.249 3.434,191.412 3.314 C 193.166 3.133,193.678 2.892,194.410 1.901 C 195.238 0.781,195.409 0.724,197.147 0.985 C 199.488 1.336,200.048 1.336,203.043 0.985 L 205.487 0.699 205.923 1.952 C 206.193 2.724,206.789 3.374,207.480 3.647 C 209.231 4.338,212.876 5.170,214.220 5.186 C 214.891 5.194,215.614 5.374,215.827 5.587 C 216.040 5.800,216.931 6.127,217.807 6.314 L 219.400 6.655 219.297 8.627 C 219.237 9.767,218.952 10.780,218.621 11.026 C 218.306 11.261,217.829 12.341,217.561 13.426 C 217.292 14.512,216.741 16.027,216.336 16.794 C 215.931 17.561,215.600 18.601,215.600 19.107 C 215.600 19.612,215.335 20.127,215.011 20.251 C 214.687 20.376,214.307 21.135,214.166 21.939 C 214.026 22.742,213.627 23.624,213.281 23.898 C 212.878 24.218,212.589 25.259,212.478 26.795 C 212.318 29.011,212.201 29.258,210.952 30.030 C 207.348 32.257,207.494 36.684,211.235 38.618 L 212.400 39.221 212.400 56.365 L 212.400 73.510 215.109 73.663 C 217.687 73.808,217.942 73.916,220.403 75.908 C 221.825 77.059,223.295 78.000,223.671 78.000 C 224.046 78.000,224.460 78.173,224.591 78.385 C 224.722 78.597,225.407 78.942,226.114 79.152 C 226.822 79.362,228.480 79.929,229.800 80.412 C 231.608 81.074,233.650 81.373,238.079 81.624 C 242.044 81.849,244.348 82.160,245.159 82.579 C 246.793 83.424,257.671 83.471,259.263 82.640 C 260.492 81.999,261.200 82.434,261.200 83.830 C 261.200 85.728,261.745 87.210,262.835 88.279 C 263.883 89.307,263.979 89.643,263.989 92.326 L 264.000 95.252 241.376 95.170 C 215.916 95.078,218.051 94.747,217.735 98.838 C 217.609 100.467,217.282 101.981,217.009 102.203 C 216.691 102.461,216.327 105.044,215.994 109.403 C 215.678 113.552,215.280 116.434,214.973 116.800 C 214.646 117.191,214.372 119.628,214.188 123.800 C 213.967 128.800,213.765 130.359,213.265 130.928 C 212.691 131.581,212.608 135.315,212.464 166.940 L 212.304 202.224 214.252 202.696 C 215.323 202.955,217.640 203.373,219.400 203.623 C 221.160 203.874,222.780 204.211,223.000 204.373 C 223.220 204.535,224.480 204.897,225.800 205.177 C 230.237 206.119,239.703 209.620,243.200 211.612 C 243.530 211.800,245.240 212.689,247.000 213.587 C 270.163 225.408,289.531 250.048,296.056 276.000 C 296.471 277.650,296.981 279.540,297.190 280.200 C 299.890 288.745,299.904 310.323,297.216 321.800 C 296.804 323.560,296.339 325.630,296.183 326.400 C 295.793 328.318,292.915 336.981,291.932 339.195 C 289.340 345.029,288.401 346.976,286.532 350.400 C 273.446 374.371,250.503 392.266,224.000 399.174 L 221.000 399.956 310.500 399.978 L 400.000 400.000 400.000 200.000 L 400.000 0.000 200.000 0.000 L 0.000 0.000 0.000 200.000 M192.000 22.925 C 192.000 22.994,192.585 23.579,193.300 24.225 L 194.600 25.400 193.425 24.100 C 192.330 22.888,192.000 22.616,192.000 22.925 M197.900 82.282 C 198.395 82.378,199.205 82.378,199.700 82.282 C 200.195 82.187,199.790 82.109,198.800 82.109 C 197.810 82.109,197.405 82.187,197.900 82.282 M202.399 83.900 C 202.922 84.615,203.413 85.200,203.489 85.200 C 203.793 85.200,202.801 83.700,202.145 83.167 C 201.713 82.816,201.810 83.096,202.399 83.900 M144.200 89.800 C 144.200 90.528,144.335 91.040,144.500 90.938 C 144.665 90.836,144.800 90.324,144.800 89.800 C 144.800 89.276,144.665 88.764,144.500 88.662 C 144.335 88.560,144.200 89.072,144.200 89.800 M255.762 91.100 C 256.227 91.649,256.929 91.979,257.562 91.946 L 258.600 91.891 257.600 91.709 C 257.050 91.609,256.240 91.228,255.800 90.864 C 255.006 90.205,255.006 90.207,255.762 91.100 M195.600 237.462 C 137.266 242.772,115.026 318.834,161.687 353.445 C 166.729 357.185,174.405 361.341,177.800 362.169 C 178.460 362.330,179.540 362.702,180.200 362.995 C 188.654 366.756,210.695 366.765,219.400 363.012 C 220.060 362.727,221.320 362.268,222.200 361.991 C 226.026 360.788,233.063 356.998,237.575 353.711 C 243.834 349.150,249.311 343.272,254.261 335.800 C 255.610 333.765,259.199 326.579,259.202 325.908 C 259.204 325.629,259.483 324.866,259.823 324.214 C 260.684 322.563,261.920 318.035,262.611 314.000 C 262.932 312.130,263.375 309.731,263.597 308.669 C 264.111 306.209,264.121 297.342,263.612 295.106 C 263.399 294.168,262.967 291.780,262.652 289.800 C 262.069 286.129,260.603 280.547,260.029 279.809 C 259.854 279.584,259.584 278.860,259.429 278.200 C 259.100 276.801,255.788 270.125,254.268 267.800 C 252.179 264.604,251.387 263.510,250.700 262.872 C 250.315 262.515,250.000 262.065,250.000 261.872 C 250.000 260.998,242.465 253.512,238.741 250.686 C 238.223 250.294,237.100 249.439,236.245 248.786 C 235.390 248.134,234.527 247.600,234.328 247.600 C 234.129 247.600,233.749 247.417,233.483 247.194 C 231.900 245.865,229.711 244.734,222.600 241.570 C 216.697 238.944,202.708 236.815,195.600 237.462 " stroke="none" fill="#0ccb9b" fill-rule="evenodd">
			
		</path>
		<path id="path1" d="M194.508 2.600 C 193.784 3.418,192.894 4.000,192.369 4.000 C 191.235 4.000,184.765 5.136,182.468 5.739 C 180.837 6.167,180.747 6.264,180.931 7.397 C 181.223 9.195,181.963 11.936,182.366 12.714 C 182.562 13.091,182.940 14.210,183.207 15.200 C 183.688 16.989,183.889 17.577,184.750 19.719 C 184.998 20.334,185.200 21.174,185.200 21.585 C 185.200 21.997,185.346 22.393,185.524 22.467 C 185.703 22.540,186.156 24.040,186.532 25.800 C 186.942 27.720,187.474 29.160,187.861 29.400 C 192.418 32.223,192.580 37.010,188.200 39.399 L 186.600 40.272 186.496 57.415 C 186.379 76.611,186.648 75.184,183.136 75.194 C 180.940 75.200,177.600 76.698,177.600 77.676 C 177.600 78.042,174.452 79.531,171.600 80.515 C 166.706 82.203,165.079 82.569,161.200 82.851 C 158.890 83.019,155.830 83.369,154.400 83.629 C 151.437 84.166,141.153 84.302,139.505 83.826 C 138.713 83.596,138.366 83.660,138.251 84.054 C 138.163 84.354,137.886 85.356,137.636 86.279 C 137.385 87.202,136.636 88.503,135.970 89.168 C 134.862 90.277,134.770 90.574,134.880 92.690 L 135.000 95.000 157.800 95.208 C 170.340 95.323,180.625 95.458,180.655 95.508 C 180.840 95.821,181.294 98.531,181.473 100.400 C 181.589 101.610,181.817 102.690,181.980 102.800 C 182.262 102.990,183.096 109.285,183.464 114.000 C 183.559 115.210,183.801 116.560,184.003 117.000 C 184.348 117.750,184.467 118.892,185.041 126.999 C 185.165 128.759,185.474 130.448,185.726 130.752 C 186.062 131.156,186.227 140.972,186.339 167.175 L 186.493 203.044 181.746 203.953 C 126.588 214.524,90.648 267.393,101.428 322.104 C 108.695 358.988,136.400 388.561,173.112 398.623 L 178.136 400.000 199.000 400.000 L 219.864 400.000 224.888 398.623 C 282.569 382.814,313.387 321.170,291.854 264.672 C 281.852 238.427,256.919 215.144,229.910 206.828 C 224.474 205.154,223.307 204.845,220.800 204.410 C 219.370 204.162,216.903 203.699,215.317 203.380 C 213.731 203.061,212.315 202.800,212.169 202.800 C 211.513 202.800,212.209 131.438,212.876 130.400 C 213.356 129.652,213.589 127.838,213.799 123.200 C 213.953 119.790,214.224 116.820,214.401 116.600 C 214.579 116.380,214.822 115.120,214.942 113.800 C 215.516 107.510,216.242 102.459,216.646 101.955 C 216.891 101.650,217.198 100.067,217.328 98.438 C 217.656 94.321,215.529 94.665,240.890 94.630 L 263.400 94.600 263.521 92.250 C 263.617 90.409,263.487 89.741,262.921 89.169 C 261.380 87.608,260.400 85.455,260.400 83.629 C 260.400 82.895,260.262 82.782,259.700 83.055 C 258.579 83.601,246.155 83.711,245.170 83.184 C 244.704 82.934,242.225 82.647,239.661 82.546 C 237.098 82.445,234.280 82.174,233.400 81.945 C 230.086 81.083,225.142 79.430,224.951 79.121 C 224.842 78.944,224.414 78.800,224.000 78.800 C 223.586 78.800,222.112 77.930,220.724 76.867 C 217.264 74.217,216.773 74.000,214.226 74.000 L 212.000 74.000 212.000 56.849 L 212.000 39.697 210.857 39.223 C 206.872 37.573,206.737 31.826,210.629 29.530 C 211.885 28.789,212.000 28.562,212.000 26.814 C 212.000 25.514,212.254 24.585,212.800 23.891 C 213.240 23.331,213.600 22.532,213.600 22.113 C 213.600 21.695,213.864 21.004,214.187 20.576 C 214.510 20.149,214.780 19.573,214.787 19.296 C 214.794 19.018,215.150 18.028,215.577 17.096 C 216.005 16.163,216.666 14.410,217.046 13.200 C 217.427 11.990,217.843 10.910,217.971 10.800 C 218.408 10.425,219.274 7.541,219.025 7.292 C 218.889 7.155,218.557 7.006,218.288 6.960 C 217.804 6.877,215.092 6.238,212.400 5.573 C 206.859 4.205,206.366 3.988,205.515 2.545 C 204.666 1.106,202.469 0.859,200.459 1.977 C 200.162 2.142,199.262 2.043,198.459 1.756 C 196.284 0.979,195.863 1.069,194.508 2.600 M203.000 9.351 C 210.294 12.791,210.304 22.860,203.016 26.253 C 194.151 30.382,185.964 19.338,192.304 11.804 C 195.030 8.563,199.269 7.591,203.000 9.351 M201.122 82.059 C 206.287 84.560,204.526 92.400,198.800 92.400 C 193.099 92.400,191.379 84.577,196.520 82.032 C 198.613 80.996,198.930 80.998,201.122 82.059 M144.218 87.782 C 146.530 90.094,143.686 93.997,140.981 92.224 C 139.054 90.962,138.935 88.981,140.703 87.590 C 142.039 86.540,143.030 86.594,144.218 87.782 M259.371 87.428 C 261.125 89.183,260.117 92.081,257.667 92.325 C 256.239 92.467,254.400 90.974,254.400 89.672 C 254.400 87.404,257.808 85.865,259.371 87.428 M209.325 237.782 C 211.907 238.103,214.214 238.485,214.451 238.632 C 214.689 238.778,216.079 239.220,217.542 239.613 C 257.452 250.345,276.518 297.883,255.529 334.333 C 229.727 379.142,162.942 376.238,142.076 329.400 C 121.241 282.632,158.765 231.510,209.325 237.782 " stroke="none" fill="#4e2c5e" fill-rule="evenodd">
			
		</path>
		<path id="path2" d="M195.029 1.429 C 194.121 2.337,194.254 2.656,195.188 1.810 C 195.880 1.185,196.188 1.156,197.688 1.574 C 199.749 2.150,199.664 2.150,202.358 1.551 C 204.334 1.112,204.565 1.136,205.094 1.835 C 205.659 2.583,205.669 2.582,205.533 1.800 C 205.354 0.775,203.517 0.557,201.351 1.303 C 200.063 1.747,199.553 1.754,198.586 1.342 C 196.966 0.651,195.777 0.680,195.029 1.429 M193.400 3.202 C 192.960 3.393,191.729 3.665,190.663 3.805 C 189.598 3.945,188.799 4.132,188.887 4.220 C 189.222 4.555,193.231 3.865,193.900 3.357 C 194.700 2.749,194.549 2.702,193.400 3.202 M209.000 4.626 C 210.100 4.954,211.630 5.378,212.400 5.570 C 214.873 6.186,217.786 6.873,218.288 6.960 C 218.557 7.006,218.889 7.155,219.025 7.292 C 219.285 7.552,218.393 10.453,217.947 10.800 C 217.523 11.129,216.827 14.031,217.231 13.781 C 217.434 13.655,217.600 13.243,217.600 12.865 C 217.600 12.487,217.831 11.823,218.113 11.389 C 219.703 8.946,219.787 6.815,218.304 6.562 C 217.579 6.438,214.130 5.600,211.800 4.981 C 208.777 4.178,206.543 3.895,209.000 4.626 M184.800 4.693 C 184.030 4.783,183.258 4.995,183.084 5.165 C 182.785 5.456,187.350 4.976,188.200 4.627 C 188.684 4.428,186.728 4.466,184.800 4.693 M180.667 5.867 C 180.231 6.302,180.371 7.694,181.022 9.400 C 181.470 10.575,181.567 10.681,181.388 9.800 C 180.659 6.229,180.670 6.076,181.660 5.888 C 182.488 5.730,182.500 5.702,181.767 5.654 C 181.308 5.625,180.813 5.720,180.667 5.867 M197.000 8.796 C 196.498 9.009,196.981 9.053,198.297 8.913 C 200.818 8.644,203.379 9.500,205.542 11.334 C 206.975 12.550,206.983 12.551,206.000 11.432 C 203.964 9.115,199.398 7.778,197.000 8.796 M193.733 10.309 C 192.989 10.783,190.799 13.666,190.812 14.155 C 190.819 14.400,191.022 14.240,191.264 13.800 C 191.506 13.360,192.347 12.325,193.133 11.500 C 194.520 10.044,194.695 9.697,193.733 10.309 M207.649 14.809 C 208.254 16.600,208.595 16.948,208.228 15.400 C 208.071 14.740,207.771 14.024,207.561 13.809 C 207.350 13.594,207.390 14.044,207.649 14.809 M216.432 14.825 C 216.414 15.169,216.040 16.195,215.600 17.106 C 215.160 18.016,214.794 18.995,214.787 19.281 C 214.780 19.566,214.510 20.149,214.187 20.576 C 213.864 21.004,213.600 21.695,213.600 22.113 C 213.600 22.532,213.240 23.331,212.800 23.891 C 212.254 24.585,212.000 25.514,212.000 26.814 C 212.000 28.562,211.885 28.789,210.629 29.530 C 206.737 31.826,206.872 37.573,210.857 39.223 L 212.000 39.697 212.000 56.849 L 212.000 74.000 214.226 74.000 C 216.773 74.000,217.264 74.217,220.724 76.867 C 222.112 77.930,223.545 78.800,223.908 78.800 C 224.272 78.800,223.925 78.472,223.137 78.070 C 222.350 77.669,220.917 76.702,219.953 75.923 C 217.471 73.917,216.718 73.600,214.426 73.600 L 212.400 73.600 212.400 56.640 L 212.400 39.679 211.004 38.855 C 207.223 36.624,207.106 32.132,210.769 29.819 C 212.311 28.846,212.400 28.685,212.400 26.849 C 212.400 25.514,212.650 24.591,213.200 23.891 C 213.640 23.331,214.000 22.532,214.000 22.113 C 214.000 21.695,214.264 21.004,214.587 20.576 C 214.910 20.149,215.180 19.573,215.187 19.296 C 215.194 19.018,215.577 17.989,216.038 17.009 C 216.499 16.029,216.783 14.996,216.669 14.713 C 216.527 14.359,216.453 14.393,216.432 14.825 M183.044 15.800 C 183.373 17.271,183.602 17.590,183.594 16.567 C 183.591 16.145,183.405 15.530,183.182 15.200 C 182.885 14.762,182.848 14.924,183.044 15.800 M190.243 15.433 C 189.905 16.312,189.950 19.702,190.306 20.262 C 190.468 20.516,190.600 19.391,190.600 17.762 C 190.600 14.531,190.597 14.510,190.243 15.433 M184.044 18.846 C 184.897 21.607,185.132 22.185,185.160 21.600 C 185.192 20.910,184.276 18.143,183.886 17.753 C 183.742 17.609,183.813 18.101,184.044 18.846 M185.628 23.233 C 185.644 23.765,185.819 24.560,186.019 25.000 C 186.271 25.558,186.307 25.315,186.138 24.200 C 185.855 22.343,185.587 21.836,185.628 23.233 M205.000 24.668 C 204.120 25.457,203.760 25.916,204.200 25.688 C 204.941 25.304,207.151 23.179,206.770 23.217 C 206.676 23.226,205.880 23.879,205.000 24.668 M193.400 25.041 C 195.677 26.880,199.599 27.710,201.800 26.820 C 202.268 26.631,201.520 26.576,200.000 26.688 C 197.670 26.860,197.151 26.751,195.000 25.637 C 193.680 24.954,192.960 24.686,193.400 25.041 M186.432 26.450 C 186.340 28.311,186.923 29.510,188.219 30.129 C 190.044 30.999,190.862 32.392,190.891 34.681 C 190.916 36.540,190.928 36.560,191.307 35.333 C 191.823 33.657,190.722 31.354,188.800 30.089 C 187.800 29.431,187.266 28.686,186.932 27.484 C 186.675 26.558,186.450 26.093,186.432 26.450 M187.800 39.085 C 186.229 39.463,186.204 39.725,186.000 57.320 L 185.800 74.600 183.289 74.719 C 181.174 74.820,176.417 76.800,178.290 76.800 C 178.511 76.800,179.150 76.440,179.709 76.000 C 180.460 75.410,181.339 75.198,183.063 75.194 C 186.660 75.184,186.379 76.646,186.496 57.391 L 186.600 40.223 187.507 39.771 C 188.321 39.365,189.188 38.729,188.767 38.846 C 188.675 38.872,188.240 38.979,187.800 39.085 M176.456 78.034 C 175.936 78.455,175.677 78.800,175.879 78.800 C 176.415 78.800,177.834 77.700,177.599 77.467 C 177.490 77.358,176.975 77.613,176.456 78.034 M173.720 79.242 C 173.016 79.446,172.334 79.783,172.206 79.990 C 171.939 80.422,174.400 79.673,174.980 79.145 C 175.415 78.750,175.427 78.749,173.720 79.242 M225.027 79.152 C 225.600 79.672,228.260 80.500,227.764 80.004 C 227.534 79.774,226.740 79.412,226.000 79.200 C 225.260 78.988,224.822 78.966,225.027 79.152 M167.400 81.454 C 166.520 81.795,163.820 82.233,161.400 82.428 C 155.022 82.943,152.639 83.237,152.306 83.551 C 152.144 83.704,153.134 83.678,154.506 83.495 C 155.878 83.312,158.983 83.027,161.408 82.862 C 163.832 82.696,166.059 82.411,166.357 82.227 C 166.655 82.043,167.731 81.662,168.749 81.382 C 169.767 81.101,170.240 80.863,169.800 80.853 C 169.360 80.843,168.280 81.114,167.400 81.454 M231.600 81.507 C 232.810 81.847,235.600 82.161,237.800 82.205 L 241.800 82.284 237.800 82.001 C 235.600 81.845,233.080 81.515,232.200 81.268 C 231.320 81.021,230.330 80.835,230.000 80.854 C 229.670 80.873,230.390 81.167,231.600 81.507 M196.520 82.032 C 193.812 83.373,192.152 88.258,194.014 89.409 C 194.237 89.547,194.220 89.178,193.972 88.527 C 192.059 83.495,198.500 79.724,202.540 83.510 C 203.523 84.430,203.634 84.466,203.259 83.739 C 202.183 81.658,198.937 80.836,196.520 82.032 M243.600 82.876 C 245.815 83.402,258.189 83.758,258.975 83.319 C 259.288 83.143,256.362 82.979,252.472 82.954 C 248.583 82.928,244.590 82.804,243.600 82.678 L 241.800 82.449 243.600 82.876 M260.438 83.911 C 261.130 87.069,261.305 87.600,261.652 87.600 C 261.849 87.600,261.738 86.948,261.405 86.151 C 261.072 85.354,260.800 84.285,260.800 83.775 C 260.800 83.265,260.645 82.751,260.456 82.634 C 260.265 82.516,260.257 83.085,260.438 83.911 M138.100 83.465 C 137.825 83.576,137.600 84.165,137.600 84.774 C 137.600 85.383,137.144 86.763,136.587 87.840 C 135.780 89.403,135.739 89.597,136.386 88.800 C 136.832 88.250,137.399 87.080,137.645 86.200 C 137.890 85.320,138.163 84.354,138.251 84.054 C 138.351 83.712,138.777 83.579,139.393 83.697 C 139.933 83.800,140.281 83.730,140.164 83.542 C 139.937 83.175,138.914 83.137,138.100 83.465 M143.282 84.296 C 144.758 84.373,147.278 84.373,148.882 84.297 C 150.487 84.221,149.280 84.158,146.200 84.158 C 143.120 84.157,141.807 84.219,143.282 84.296 M203.839 86.035 C 204.553 90.571,199.626 93.571,195.767 90.952 C 194.917 90.375,194.474 90.207,194.782 90.578 C 198.257 94.765,206.100 90.544,204.031 85.600 C 203.661 84.713,203.639 84.763,203.839 86.035 M142.526 87.207 C 143.145 87.392,143.873 87.692,144.144 87.872 C 144.416 88.053,144.294 87.885,143.875 87.500 C 143.455 87.115,142.726 86.815,142.256 86.834 C 141.562 86.862,141.613 86.933,142.526 87.207 M255.229 87.854 C 254.188 89.178,254.182 90.055,255.206 91.256 L 256.012 92.200 255.322 90.942 C 254.499 89.439,255.012 87.810,256.497 87.214 C 257.140 86.955,257.207 86.843,256.729 86.825 C 256.360 86.811,255.685 87.274,255.229 87.854 M258.000 87.084 C 258.330 87.205,258.915 87.579,259.300 87.914 C 260.170 88.672,260.227 88.284,259.371 87.429 C 259.026 87.083,258.441 86.814,258.071 86.832 C 257.523 86.857,257.510 86.904,258.000 87.084 M262.946 89.311 C 263.504 89.719,263.620 90.304,263.523 92.211 L 263.400 94.600 240.890 94.630 C 227.668 94.648,218.240 94.813,218.043 95.030 C 217.654 95.456,217.064 98.269,217.442 97.891 C 217.580 97.753,217.811 97.063,217.955 96.356 L 218.218 95.072 241.009 95.036 L 263.800 95.000 263.920 92.465 C 264.037 90.001,263.628 88.800,262.675 88.800 C 262.439 88.800,262.562 89.030,262.946 89.311 M134.566 90.145 C 134.451 90.444,134.412 91.749,134.478 93.045 L 134.600 95.400 157.400 95.407 L 180.200 95.413 157.600 95.207 L 135.000 95.000 135.000 92.299 C 135.000 89.534,134.931 89.193,134.566 90.145 M139.612 90.671 C 139.596 91.302,141.544 92.804,142.354 92.784 C 142.709 92.776,142.433 92.522,141.740 92.221 C 141.047 91.919,140.288 91.341,140.052 90.936 C 139.817 90.531,139.619 90.412,139.612 90.671 M259.219 91.377 C 258.956 91.694,258.169 92.025,257.470 92.113 L 256.200 92.272 257.438 92.336 C 258.230 92.377,258.937 92.111,259.400 91.600 C 259.798 91.160,260.028 90.800,259.911 90.800 C 259.794 90.800,259.483 91.060,259.219 91.377 M180.400 96.576 C 180.400 97.113,180.547 97.644,180.728 97.755 C 180.908 97.867,180.977 97.427,180.882 96.779 C 180.672 95.349,180.400 95.235,180.400 96.576 M181.320 100.400 C 181.320 101.610,181.395 102.105,181.487 101.500 C 181.578 100.895,181.578 99.905,181.487 99.300 C 181.395 98.695,181.320 99.190,181.320 100.400 M216.524 102.100 C 216.221 102.568,215.439 108.355,214.942 113.800 C 214.822 115.120,214.579 116.380,214.401 116.600 C 214.224 116.820,213.953 119.790,213.799 123.200 C 213.589 127.838,213.356 129.652,212.876 130.400 C 212.300 131.297,212.227 135.088,212.167 167.200 L 212.100 203.000 212.368 167.200 C 212.606 135.334,212.706 131.290,213.277 130.400 C 213.756 129.653,213.989 127.833,214.199 123.200 C 214.353 119.790,214.624 116.820,214.801 116.600 C 214.979 116.380,215.222 115.120,215.342 113.800 C 215.839 108.355,216.621 102.568,216.924 102.100 C 217.102 101.825,217.157 101.600,217.047 101.600 C 216.937 101.600,216.702 101.825,216.524 102.100 M182.038 104.400 C 182.024 105.390,182.170 106.449,182.363 106.754 C 182.579 107.095,182.641 106.558,182.524 105.354 C 182.260 102.645,182.068 102.267,182.038 104.400 M183.079 113.200 C 183.180 114.850,183.422 116.560,183.617 117.000 C 183.949 117.750,184.068 118.912,184.641 126.999 C 184.765 128.759,185.070 130.443,185.317 130.742 C 185.639 131.129,185.844 141.201,186.034 165.942 L 186.301 200.600 186.240 165.948 C 186.195 140.705,186.054 131.147,185.723 130.748 C 185.472 130.446,185.164 128.759,185.039 126.999 C 184.913 125.240,184.704 122.360,184.575 120.600 C 184.446 118.840,184.173 117.229,183.970 117.020 C 183.766 116.811,183.582 115.641,183.560 114.420 C 183.538 113.199,183.380 111.750,183.208 111.200 C 183.026 110.620,182.972 111.459,183.079 113.200 M181.245 203.632 C 180.279 203.822,179.386 204.081,179.260 204.207 C 178.993 204.474,182.128 204.014,183.600 203.570 C 185.011 203.145,183.527 203.184,181.245 203.632 M216.408 203.555 C 216.962 203.735,218.312 203.992,219.408 204.126 C 220.660 204.280,221.026 204.250,220.392 204.045 C 219.838 203.865,218.488 203.608,217.392 203.474 C 216.140 203.320,215.774 203.350,216.408 203.555 M224.400 205.149 C 224.730 205.346,225.630 205.620,226.400 205.756 C 227.344 205.923,227.540 205.892,227.000 205.661 C 225.763 205.132,223.690 204.723,224.400 205.149 M172.600 205.802 L 171.400 206.367 172.600 206.124 C 173.260 205.990,174.160 205.739,174.600 205.566 L 175.400 205.251 174.600 205.243 C 174.160 205.239,173.260 205.491,172.600 205.802 M167.400 207.386 C 165.855 208.093,166.574 208.103,168.400 207.400 C 169.170 207.103,169.530 206.855,169.200 206.848 C 168.870 206.842,168.060 207.083,167.400 207.386 M231.800 207.355 C 232.460 207.655,233.450 208.011,234.000 208.146 C 234.803 208.343,234.764 208.284,233.800 207.845 C 233.140 207.545,232.150 207.189,231.600 207.054 C 230.797 206.857,230.836 206.916,231.800 207.355 M236.000 208.966 C 236.550 209.260,237.450 209.612,238.000 209.749 C 238.550 209.886,238.280 209.652,237.400 209.229 C 235.590 208.358,234.468 208.148,236.000 208.966 M162.500 209.212 C 161.161 209.751,161.411 210.024,162.800 209.540 C 163.460 209.310,164.000 209.049,164.000 208.961 C 164.000 208.724,163.513 208.805,162.500 209.212 M240.833 210.953 C 241.241 211.326,246.000 213.591,246.000 213.412 C 246.000 213.187,241.379 210.800,240.945 210.800 C 240.792 210.800,240.742 210.869,240.833 210.953 M247.600 214.421 C 248.660 215.142,250.400 216.026,250.400 215.843 C 250.400 215.585,247.769 213.999,247.353 214.006 C 247.159 214.009,247.270 214.196,247.600 214.421 M252.800 217.275 C 253.265 217.815,262.861 224.823,262.635 224.456 C 262.355 224.003,255.646 218.941,253.800 217.790 C 253.140 217.379,252.690 217.147,252.800 217.275 M269.007 230.620 C 275.493 237.135,280.730 243.739,284.693 250.400 C 287.990 255.942,288.394 256.475,286.360 252.600 C 282.119 244.517,274.107 234.510,266.278 227.516 C 264.262 225.715,265.305 226.902,269.007 230.620 M211.800 238.400 C 213.492 238.831,214.944 238.831,213.600 238.400 C 213.050 238.224,212.150 238.083,211.600 238.087 C 210.702 238.094,210.722 238.126,211.800 238.400 M241.000 252.400 C 241.859 253.280,242.652 254.000,242.762 254.000 C 242.872 254.000,242.259 253.280,241.400 252.400 C 240.541 251.520,239.748 250.800,239.638 250.800 C 239.528 250.800,240.141 251.520,241.000 252.400 M288.007 256.120 C 287.994 256.707,289.256 258.878,289.479 258.654 C 289.601 258.533,289.320 257.841,288.857 257.117 C 288.393 256.393,288.010 255.944,288.007 256.120 M249.397 260.900 C 250.472 262.165,251.423 263.200,251.510 263.200 C 251.783 263.200,249.329 260.236,248.364 259.400 C 247.856 258.960,248.321 259.635,249.397 260.900 M289.634 259.400 C 289.634 259.620,289.978 260.430,290.400 261.200 C 290.822 261.970,291.166 262.420,291.166 262.200 C 291.166 261.980,290.822 261.170,290.400 260.400 C 289.978 259.630,289.634 259.180,289.634 259.400 M292.232 265.600 C 292.616 267.052,293.176 268.003,293.174 267.200 C 293.173 266.870,292.901 266.150,292.569 265.600 L 291.967 264.600 292.232 265.600 M293.871 270.200 C 294.002 270.860,294.347 271.940,294.638 272.600 L 295.167 273.800 294.929 272.600 C 294.798 271.940,294.453 270.860,294.162 270.200 L 293.633 269.000 293.871 270.200 M295.633 276.000 C 295.623 276.330,295.878 277.500,296.198 278.600 L 296.780 280.600 296.539 278.800 C 296.281 276.872,295.664 274.964,295.633 276.000 M261.044 282.200 C 261.373 283.671,261.602 283.990,261.594 282.967 C 261.591 282.545,261.405 281.930,261.182 281.600 C 260.885 281.162,260.848 281.324,261.044 282.200 M297.367 284.200 C 297.459 284.860,297.758 287.247,298.030 289.504 C 298.302 291.762,298.607 293.526,298.707 293.426 C 298.967 293.166,298.048 285.587,297.586 284.178 L 297.199 283.000 297.367 284.200 M298.957 301.200 C 298.957 304.170,299.020 305.385,299.097 303.900 C 299.174 302.415,299.174 299.985,299.097 298.500 C 299.020 297.015,298.957 298.230,298.957 301.200 M136.140 302.400 C 136.140 304.270,136.209 305.035,136.293 304.100 C 136.377 303.165,136.377 301.635,136.293 300.700 C 136.209 299.765,136.140 300.530,136.140 302.400 M99.334 302.400 C 99.334 304.050,99.405 304.725,99.491 303.900 C 99.578 303.075,99.578 301.725,99.491 300.900 C 99.405 300.075,99.334 300.750,99.334 302.400 M264.128 302.000 C 264.128 303.430,264.201 304.015,264.289 303.300 C 264.378 302.585,264.378 301.415,264.289 300.700 C 264.201 299.985,264.128 300.570,264.128 302.000 M298.509 310.000 C 298.509 310.990,298.587 311.395,298.682 310.900 C 298.778 310.405,298.778 309.595,298.682 309.100 C 298.587 308.605,298.509 309.010,298.509 310.000 M244.989 347.700 L 242.200 350.600 245.100 347.811 C 247.794 345.220,248.183 344.800,247.889 344.800 C 247.828 344.800,246.523 346.105,244.989 347.700 M237.800 353.835 L 236.600 354.866 237.900 354.006 C 238.615 353.533,239.200 353.068,239.200 352.973 C 239.200 352.673,239.031 352.778,237.800 353.835 M225.200 361.000 C 224.650 361.314,224.380 361.572,224.600 361.572 C 224.820 361.572,225.450 361.314,226.000 361.000 C 226.550 360.686,226.820 360.428,226.600 360.428 C 226.380 360.428,225.750 360.686,225.200 361.000 M221.000 362.614 C 220.000 363.096,219.966 363.151,220.800 362.948 C 221.933 362.671,223.207 362.021,222.600 362.030 C 222.380 362.033,221.660 362.296,221.000 362.614 M183.400 364.400 C 183.840 364.589,184.470 364.744,184.800 364.744 C 185.178 364.744,185.104 364.617,184.600 364.400 C 184.160 364.211,183.530 364.056,183.200 364.056 C 182.822 364.056,182.896 364.183,183.400 364.400 M194.311 366.293 C 195.251 366.378,196.691 366.377,197.511 366.291 C 198.330 366.205,197.560 366.136,195.800 366.137 C 194.040 366.139,193.370 366.209,194.311 366.293 M201.900 366.293 C 202.835 366.377,204.365 366.377,205.300 366.293 C 206.235 366.209,205.470 366.140,203.600 366.140 C 201.730 366.140,200.965 366.209,201.900 366.293 M128.400 373.000 C 129.595 374.210,130.663 375.200,130.773 375.200 C 130.883 375.200,129.995 374.210,128.800 373.000 C 127.605 371.790,126.537 370.800,126.427 370.800 C 126.317 370.800,127.205 371.790,128.400 373.000 M269.186 373.100 L 267.000 375.400 269.300 373.214 C 271.437 371.182,271.783 370.800,271.486 370.800 C 271.424 370.800,270.389 371.835,269.186 373.100 " stroke="none" fill="#318282" fill-rule="evenodd">
			
		</path>
		<path id="path3" d="M196.600 9.601 C 191.885 11.076,189.272 17.143,191.502 21.438 C 194.549 27.305,202.247 28.095,206.180 22.945 C 211.128 16.465,204.439 7.148,196.600 9.601 M195.582 83.500 C 194.000 84.913,193.575 87.357,194.607 89.104 C 197.193 93.482,203.600 91.732,203.600 86.648 C 203.600 82.959,198.450 80.937,195.582 83.500 M140.533 88.646 C 139.918 89.585,139.908 89.801,140.439 90.746 C 141.301 92.282,143.618 92.264,144.162 90.716 C 145.107 88.029,142.072 86.298,140.533 88.646 M255.614 88.374 C 255.016 89.492,255.102 90.187,255.931 90.938 C 257.810 92.638,260.314 90.885,259.273 88.600 C 258.685 87.309,256.264 87.159,255.614 88.374 " stroke="none" fill="#04fbcb" fill-rule="evenodd">
			
		</path>
		<path id="path4" d="M205.625 2.038 C 205.595 2.807,206.841 4.010,207.631 3.975 C 207.944 3.961,207.791 3.785,207.291 3.584 C 206.790 3.383,206.217 2.810,206.016 2.309 C 205.781 1.724,205.642 1.627,205.625 2.038 M189.800 3.485 C 189.360 3.591,188.820 3.851,188.600 4.063 C 188.340 4.313,188.431 4.359,188.860 4.196 C 189.223 4.058,190.393 3.799,191.460 3.620 C 193.066 3.350,193.159 3.294,192.000 3.293 C 191.230 3.293,190.240 3.379,189.800 3.485 M182.000 5.088 C 180.533 5.351,180.162 5.896,181.592 5.686 C 182.262 5.588,182.908 5.349,183.029 5.154 C 183.149 4.959,183.192 4.825,183.124 4.854 C 183.056 4.884,182.550 4.990,182.000 5.088 M212.800 5.358 C 212.800 5.445,213.505 5.583,214.366 5.665 C 215.228 5.748,215.847 5.676,215.743 5.507 C 215.553 5.200,212.800 5.060,212.800 5.358 M204.400 10.525 C 204.400 10.594,204.985 11.179,205.700 11.825 L 207.000 13.000 205.825 11.700 C 204.730 10.488,204.400 10.216,204.400 10.525 M182.652 15.184 C 182.737 16.165,182.980 17.140,183.190 17.350 C 183.433 17.593,183.440 17.234,183.211 16.366 C 183.013 15.615,182.771 14.640,182.673 14.200 C 182.575 13.760,182.566 14.203,182.652 15.184 M208.101 17.800 C 208.105 18.680,208.187 18.993,208.283 18.495 C 208.379 17.998,208.375 17.278,208.275 16.895 C 208.175 16.513,208.096 16.920,208.101 17.800 M184.446 21.051 C 184.421 21.519,184.715 22.149,185.100 22.451 C 185.709 22.928,185.740 22.922,185.343 22.400 C 185.092 22.070,184.798 21.440,184.689 21.000 C 184.503 20.240,184.490 20.243,184.446 21.051 M186.454 28.692 C 186.414 29.354,186.809 29.792,187.988 30.394 C 188.862 30.840,189.845 31.698,190.172 32.302 C 190.500 32.906,190.775 33.199,190.784 32.954 C 190.812 32.175,189.270 30.526,188.036 30.015 C 187.363 29.736,186.772 29.148,186.677 28.661 C 186.511 27.809,186.508 27.809,186.454 28.692 M209.722 30.629 L 208.600 31.658 209.900 30.754 C 210.615 30.257,211.200 29.793,211.200 29.725 C 211.200 29.409,210.758 29.680,209.722 30.629 M208.093 34.400 C 208.093 35.170,208.175 35.485,208.276 35.100 C 208.376 34.715,208.376 34.085,208.276 33.700 C 208.175 33.315,208.093 33.630,208.093 34.400 M189.983 37.031 C 189.680 37.599,188.974 38.312,188.416 38.615 C 187.857 38.919,187.643 39.175,187.940 39.184 C 188.520 39.201,190.800 36.949,190.800 36.358 C 190.800 35.755,190.560 35.953,189.983 37.031 M209.399 37.555 C 209.839 38.065,210.739 38.736,211.399 39.047 C 212.108 39.380,212.291 39.404,211.846 39.106 C 211.432 38.828,210.532 38.156,209.846 37.614 C 208.643 36.662,208.627 36.660,209.399 37.555 M179.762 75.300 C 179.005 76.195,179.005 76.196,179.808 75.521 C 180.331 75.082,181.529 74.792,183.208 74.699 L 185.800 74.554 183.162 74.477 C 180.866 74.410,180.425 74.517,179.762 75.300 M171.000 80.214 C 169.995 80.698,169.963 80.753,170.800 80.551 C 171.350 80.419,171.971 80.150,172.180 79.955 C 172.698 79.471,172.414 79.533,171.000 80.214 M227.600 79.831 C 227.600 80.101,229.678 80.856,229.876 80.657 C 229.967 80.567,229.492 80.301,228.820 80.067 C 228.149 79.833,227.600 79.727,227.600 79.831 M161.200 82.000 L 157.400 82.247 161.000 82.284 C 162.980 82.304,165.050 82.176,165.600 82.000 C 166.744 81.634,166.841 81.634,161.200 82.000 M234.033 81.745 C 234.125 81.825,236.540 81.978,239.400 82.085 C 242.473 82.200,243.864 82.153,242.800 81.970 C 240.996 81.659,233.720 81.472,234.033 81.745 M259.806 82.390 C 259.660 82.627,259.773 82.770,260.057 82.710 C 260.368 82.644,260.678 83.159,260.835 84.000 L 261.095 85.400 261.147 84.149 C 261.203 82.822,260.284 81.617,259.806 82.390 M140.262 83.700 C 140.364 83.865,143.036 84.000,146.200 84.000 C 149.364 84.000,152.036 83.865,152.138 83.700 C 152.240 83.535,149.568 83.400,146.200 83.400 C 142.832 83.400,140.160 83.535,140.262 83.700 M146.272 95.900 C 152.471 95.962,162.731 95.962,169.072 95.900 C 175.412 95.838,170.340 95.787,157.800 95.787 C 145.260 95.787,140.072 95.838,146.272 95.900 M180.735 100.017 C 180.826 101.614,181.081 102.519,181.535 102.860 C 182.096 103.283,182.122 103.274,181.700 102.801 C 181.425 102.492,181.200 101.297,181.200 100.144 C 181.200 98.991,181.065 97.963,180.900 97.861 C 180.735 97.758,180.661 98.728,180.735 100.017 M217.194 100.081 C 217.087 101.336,217.146 102.216,217.324 102.037 C 217.503 101.858,217.590 100.831,217.518 99.756 L 217.387 97.800 217.194 100.081 M182.524 109.400 C 182.526 110.720,182.601 111.212,182.690 110.493 C 182.779 109.774,182.777 108.694,182.686 108.093 C 182.595 107.492,182.522 108.080,182.524 109.400 M215.276 113.820 C 215.234 115.151,215.021 116.457,214.801 116.721 C 214.582 116.986,214.682 116.961,215.023 116.665 C 215.489 116.262,215.607 115.539,215.498 113.764 L 215.351 111.400 215.276 113.820 M182.876 114.251 C 182.816 116.171,182.952 116.821,183.500 117.251 C 184.113 117.732,184.141 117.724,183.723 117.186 C 183.460 116.849,183.179 115.499,183.098 114.186 L 182.951 111.800 182.876 114.251 M184.537 127.000 C 184.539 128.760,184.609 129.430,184.693 128.489 C 184.778 127.549,184.777 126.109,184.691 125.289 C 184.605 124.470,184.536 125.240,184.537 127.000 M171.000 205.885 C 170.560 205.991,170.032 206.237,169.827 206.432 C 169.622 206.627,170.051 206.615,170.781 206.405 C 172.843 205.814,173.017 205.400,171.000 205.885 M264.800 226.200 C 265.546 226.970,266.247 227.600,266.357 227.600 C 266.467 227.600,265.946 226.970,265.200 226.200 C 264.454 225.430,263.753 224.800,263.643 224.800 C 263.533 224.800,264.054 225.430,264.800 226.200 M269.400 230.400 C 270.259 231.280,271.052 232.000,271.162 232.000 C 271.272 232.000,270.659 231.280,269.800 230.400 C 268.941 229.520,268.148 228.800,268.038 228.800 C 267.928 228.800,268.541 229.520,269.400 230.400 M274.600 236.000 C 275.459 236.880,276.252 237.600,276.362 237.600 C 276.472 237.600,275.859 236.880,275.000 236.000 C 274.141 235.120,273.348 234.400,273.238 234.400 C 273.128 234.400,273.741 235.120,274.600 236.000 M202.705 237.483 C 203.202 237.579,203.922 237.575,204.305 237.475 C 204.687 237.375,204.280 237.296,203.400 237.301 C 202.520 237.305,202.207 237.387,202.705 237.483 M288.200 256.000 C 288.541 256.660,288.911 257.200,289.021 257.200 C 289.131 257.200,288.941 256.660,288.600 256.000 C 288.259 255.340,287.889 254.800,287.779 254.800 C 287.669 254.800,287.859 255.340,288.200 256.000 M293.429 268.000 C 293.576 268.550,293.864 269.270,294.067 269.600 C 294.325 270.017,294.357 269.895,294.171 269.200 C 294.024 268.650,293.736 267.930,293.533 267.600 C 293.275 267.183,293.243 267.305,293.429 268.000 M295.256 273.600 C 295.256 273.930,295.411 274.560,295.600 275.000 C 295.817 275.504,295.944 275.578,295.944 275.200 C 295.944 274.870,295.789 274.240,295.600 273.800 C 295.383 273.296,295.256 273.222,295.256 273.600 M297.082 281.400 C 297.483 283.990,298.001 285.259,297.736 283.000 C 297.606 281.900,297.351 280.730,297.168 280.400 C 296.975 280.052,296.939 280.472,297.082 281.400 M263.228 293.433 C 263.244 294.075,263.416 294.960,263.610 295.400 C 263.847 295.934,263.886 295.602,263.727 294.400 C 263.446 292.280,263.188 291.780,263.228 293.433 M298.914 294.200 C 298.917 295.300,298.995 295.703,299.087 295.095 C 299.179 294.486,299.177 293.586,299.082 293.095 C 298.987 292.603,298.911 293.100,298.914 294.200 M99.301 298.200 C 99.305 299.080,99.387 299.393,99.483 298.895 C 99.579 298.398,99.575 297.678,99.475 297.295 C 99.375 296.913,99.296 297.320,99.301 298.200 M299.346 301.400 C 299.347 303.600,299.414 304.449,299.495 303.287 C 299.576 302.124,299.576 300.324,299.493 299.287 C 299.411 298.249,299.345 299.200,299.346 301.400 M99.301 306.600 C 99.305 307.480,99.387 307.793,99.483 307.295 C 99.579 306.798,99.575 306.078,99.475 305.695 C 99.375 305.313,99.296 305.720,99.301 306.600 M298.909 308.000 C 298.909 308.990,298.987 309.395,299.082 308.900 C 299.178 308.405,299.178 307.595,299.082 307.100 C 298.987 306.605,298.909 307.010,298.909 308.000 M261.429 319.029 C 261.281 319.615,261.238 320.172,261.332 320.266 C 261.427 320.360,261.624 319.958,261.771 319.371 C 261.919 318.785,261.962 318.228,261.868 318.134 C 261.773 318.040,261.576 318.442,261.429 319.029 M259.579 324.655 C 259.358 325.236,259.252 325.785,259.343 325.876 C 259.433 325.967,259.699 325.492,259.933 324.820 C 260.453 323.328,260.139 323.182,259.579 324.655 M246.975 345.300 L 245.800 346.600 247.100 345.425 C 247.815 344.779,248.400 344.194,248.400 344.125 C 248.400 343.816,248.070 344.088,246.975 345.300 M242.175 350.100 L 241.000 351.400 242.300 350.225 C 243.015 349.579,243.600 348.994,243.600 348.925 C 243.600 348.616,243.270 348.888,242.175 350.100 M185.800 364.781 C 186.568 365.129,188.710 365.356,188.367 365.053 C 188.275 364.972,187.480 364.796,186.600 364.662 C 185.485 364.493,185.242 364.529,185.800 364.781 " stroke="none" fill="#1fa38e" fill-rule="evenodd">
			
		</path>
	</g>
</svg>